<svg xmlns="http://www.w3.org/2000/svg" viewBox="0 0 52 65"><path d="M19.04 28.62a3.254 3.254 0 0 1-3.25-3.25v-1.79a3.254 3.254 0 0 1 3.25-3.25 3.23 3.23 0 0 1 2.297.953c.615.614.953 1.43.953 2.298v1.79a3.254 3.254 0 0 1-3.25 3.25zm0-6.29c-.69 0-1.25.561-1.25 1.25v1.79a1.251 1.251 0 0 0 2.5 0v-1.79c0-.332-.13-.646-.367-.882a1.24 1.24 0 0 0-.883-.367z"/><path d="M49 31H25.12a1 1 0 1 1 0-2H48V4H11v12.97a1 1 0 1 1-2 0V3a1 1 0 0 1 1-1h39a1 1 0 0 1 1 1v27a1 1 0 0 1-1 1z"/><path class="st0" d="M4 16.97v15h21.12v-15H4zm8.58 8.4c0 1.24-1 2.25-2.25 2.25-.11 0-.22-.01-.33-.03a2.242 2.242 0 0 1-1.92-2.22v-1.79c0-1.13.83-2.06 1.92-2.22a2.202 2.202 0 0 1 1.92.63c.41.41.66.97.66 1.59v1.79zm8.71 0c0 1.24-1.01 2.25-2.25 2.25s-2.25-1.01-2.25-2.25v-1.79c0-1.24 1.01-2.25 2.25-2.25.62 0 1.18.25 1.59.66.41.41.66.97.66 1.59v1.79z"/><path d="M19.04 28.62a3.254 3.254 0 0 1-3.25-3.25v-1.79a3.254 3.254 0 0 1 3.25-3.25 3.23 3.23 0 0 1 2.296.952c.616.615.954 1.431.954 2.299v1.79a3.254 3.254 0 0 1-3.25 3.25zm0-6.29c-.69 0-1.25.561-1.25 1.25v1.79a1.251 1.251 0 0 0 2.5 0v-1.79c0-.332-.13-.646-.367-.883a1.245 1.245 0 0 0-.883-.366zM10.33 28.62c-.169 0-.337-.015-.505-.045A3.215 3.215 0 0 1 7.08 25.37v-1.79a3.224 3.224 0 0 1 2.774-3.21 3.194 3.194 0 0 1 2.78.92c.608.606.946 1.422.946 2.29v1.79a3.254 3.254 0 0 1-3.25 3.25zm0-6.29a.927.927 0 0 0-.155.014c-.647.096-1.095.614-1.095 1.237v1.79c0 .622.448 1.14 1.066 1.23.08.014.132.02.184.02.69 0 1.25-.56 1.25-1.25v-1.79c0-.333-.13-.647-.367-.884a1.215 1.215 0 0 0-.883-.366z"/><path d="M19.04 28.62a3.254 3.254 0 0 1-3.25-3.25v-1.79a3.254 3.254 0 0 1 3.25-3.25 3.23 3.23 0 0 1 2.296.952c.616.615.954 1.431.954 2.299v1.79a3.254 3.254 0 0 1-3.25 3.25zm0-6.29c-.69 0-1.25.561-1.25 1.25v1.79a1.251 1.251 0 0 0 2.5 0v-1.79c0-.332-.13-.646-.367-.883a1.245 1.245 0 0 0-.883-.366zM21 50H7a1 1 0 0 1-1-1V36a1 1 0 0 1 1-1h14a1 1 0 0 1 1 1v13a1 1 0 0 1-1 1zM8 48h12V37H8v11z"/><path d="M14 37a1 1 0 0 1-1-1v-4a1 1 0 1 1 2 0v4a1 1 0 0 1-1 1zM21.265 37.788h-.038c-.551-.002-1.03-.452-1.028-1.002 0-.552.415-.998.967-.998h.095c2.914 0 5.437-1.924 6.144-4.688l1.626-6.349a1 1 0 1 1 1.938.496l-1.626 6.35c-.935 3.65-4.254 6.19-8.078 6.19zM3 49.788a1 1 0 0 1-1-1v-6.834A4.96 4.96 0 0 1 6.954 37a1 1 0 1 1 0 2A2.957 2.957 0 0 0 4 41.954v6.834a1 1 0 0 1-1 1zM38 21c-3.31 0-6-2.692-6-6s2.69-6 6-6 6 2.69 6 6-2.692 6-6 6zm0-10c-2.206 0-4 1.793-4 4s1.794 4 4 4 4-1.794 4-4-1.794-4-4-4z"/><path d="M37 8h2v2h-2zM40.829 10.756l1.413-1.413 1.414 1.414-1.413 1.414zM43 14h2v2h-2zM40.828 19.242l1.414-1.414 1.414 1.415-1.415 1.413zM37 20h2v2h-2zM32.343 19.242l1.414-1.414 1.414 1.414-1.414 1.414zM31 14h2v2h-2zM32.343 10.757l1.415-1.414 1.413 1.413-1.414 1.414z"/></svg>