<svg width="151" height="69" viewBox="0 0 151 69" fill="none" xmlns="http://www.w3.org/2000/svg">
<path d="M38.4034 4.75684H35.3715V7.78868V35.7972L12.3439 5.91183C11.7664 5.18996 10.9002 4.75684 9.96175 4.75684H5.3418V42.6549C5.3418 44.3152 6.71335 45.6868 8.37364 45.6868H11.4055V42.6549V14.6464L34.4331 44.5318C35.0106 45.2537 35.8768 45.6868 36.8152 45.6868H41.363V7.78868C41.4352 6.12839 40.0637 4.75684 38.4034 4.75684Z" fill="#3C444C"/>
<path d="M72.7644 10.8205V4.75684H52.8408H47.2824H46.7771V45.6868H47.2824H52.8408H72.6922V39.6231H52.8408V28.2176H65.69H68.7219V25.1857C68.7219 23.5254 67.3503 22.1539 65.69 22.1539H52.8408V10.8205H72.7644Z" fill="#3C444C"/>
<path d="M142.569 4.75684H115.21V10.8205H127.338V45.6868H133.401V10.8205H145.529V7.78868C145.601 6.12839 144.229 4.75684 142.569 4.75684Z" fill="#3C444C"/>
<path d="M98.1019 25.4744L84.9639 6.20049C84.3864 5.33425 83.5201 4.82894 82.5817 4.68457H75.7961L88.6454 23.6697L88.7176 23.8141L89.8726 25.4744L88.7176 27.1347L75.7961 45.6867H82.6539C83.7367 45.6867 84.7473 45.1092 85.397 44.1708L93.9872 31.5381L98.1019 25.4744Z" fill="#03A678"/>
<path d="M95.864 16.7399L99.9787 22.8035L112.178 4.75684H105.32C104.382 4.90121 103.516 5.40652 102.938 6.27276L95.864 16.7399Z" fill="#3C444C"/>
<path d="M95.864 34.2815L102.577 44.2433C103.227 45.1818 104.238 45.6871 105.32 45.7593H112.178L99.9787 28.29L95.864 34.2815Z" fill="#3C444C"/>
<path d="M5.3418 52.9785H8.51802C10.0339 52.9785 11.1167 53.1951 11.7664 53.6282C12.4161 54.0613 12.777 54.7832 12.777 55.7216C12.777 56.3713 12.5605 56.9488 12.1995 57.3819C11.8386 57.815 11.2611 58.1038 10.6114 58.2482V58.3203C12.3439 58.6091 13.138 59.4753 13.138 60.9913C13.138 62.0019 12.777 62.7959 12.1274 63.3734C11.4777 63.9509 10.4671 64.2397 9.31207 64.2397H5.3418V52.9785ZM6.64116 57.815H8.80676C9.74519 57.815 10.3949 57.6707 10.828 57.3819C11.2611 57.0932 11.4055 56.5879 11.4055 55.9382C11.4055 55.2885 11.1889 54.8554 10.7558 54.5666C10.3227 54.2779 9.60082 54.1335 8.5902 54.1335H6.64116V57.815ZM6.64116 58.8978V63.0847H8.95114C9.88957 63.0847 10.5392 62.9403 10.9724 62.5794C11.4055 62.2184 11.6942 61.7131 11.6942 60.9191C11.6942 60.1972 11.4777 59.6919 10.9724 59.4031C10.5392 59.0422 9.81738 58.8978 8.80676 58.8978H6.64116Z" fill="#3C444C"/>
<path d="M19.7069 58.6091L22.6665 52.9785H24.1103L20.3565 59.8363V64.1675H19.0572V59.9085L15.3035 52.9785H16.7472L19.7069 58.6091Z" fill="#3C444C"/>
<path d="M39.4139 56.2991C39.4139 57.4541 39.053 58.3203 38.2589 58.8978C37.4649 59.4753 36.3821 59.8363 34.9383 59.8363H33.639V64.2397H32.3396V52.9785H35.2271C37.9702 52.9785 39.4139 54.0613 39.4139 56.2991ZM33.5668 58.6813H34.7218C35.8768 58.6813 36.743 58.4647 37.2483 58.1038C37.7536 57.7429 38.0424 57.1654 38.0424 56.2991C38.0424 55.5772 37.8258 54.9997 37.3205 54.6388C36.8152 54.2779 36.0933 54.0613 35.0827 54.0613H33.639V58.6813H33.5668Z" fill="#3C444C"/>
<path d="M50.0976 64.2397L48.7261 60.7025H44.2505L42.879 64.2397H41.5796L45.983 52.9785H47.0658L51.4692 64.2397H50.0976ZM48.293 59.4753L46.9936 56.0104C46.8492 55.5772 46.6327 54.9997 46.4883 54.4223C46.3439 54.9276 46.1995 55.4329 45.983 56.0104L44.6836 59.4753H48.293Z" fill="#3C444C"/>
<path d="M59.0488 53.989C57.8216 53.989 56.811 54.4221 56.1613 55.2162C55.4394 56.0102 55.0785 57.1652 55.0785 58.6089C55.0785 60.0527 55.4394 61.2077 56.0891 62.0017C56.811 62.7958 57.7494 63.2289 59.0488 63.2289C59.8428 63.2289 60.7091 63.0845 61.7197 62.7958V63.9508C60.9256 64.2395 59.9872 64.3839 58.8322 64.3839C57.1719 64.3839 55.8726 63.8786 55.0063 62.868C54.1401 61.8573 53.6348 60.4136 53.6348 58.6089C53.6348 57.4539 53.8513 56.4433 54.2844 55.5771C54.7176 54.7108 55.3672 54.0612 56.1613 53.5559C56.9554 53.0505 57.966 52.834 59.0488 52.834C60.2038 52.834 61.2866 53.0505 62.1528 53.4837L61.5753 54.6387C60.7813 54.2055 59.915 53.989 59.0488 53.989Z" fill="#3C444C"/>
<path d="M65.4734 64.2397V52.9785H66.7728V64.1675H65.4734V64.2397Z" fill="#3C444C"/>
<path d="M72.4034 64.2397H71.104V52.9785H77.3842V54.1335H72.4034V58.2482H77.0233V59.4031H72.4034V64.2397Z" fill="#3C444C"/>
<path d="M80.4883 64.2397V52.9785H81.7877V64.1675H80.4883V64.2397Z" fill="#3C444C"/>
<path d="M90.9553 53.989C89.7281 53.989 88.7175 54.4221 88.0678 55.2162C87.3459 56.0102 86.985 57.1652 86.985 58.6089C86.985 60.0527 87.3459 61.2077 87.9956 62.0017C88.7175 62.7958 89.6559 63.2289 90.9553 63.2289C91.7493 63.2289 92.6156 63.0845 93.6262 62.7958V63.9508C92.8321 64.2395 91.8937 64.3839 90.7387 64.3839C89.0784 64.3839 87.7791 63.8786 86.9128 62.868C86.0466 61.8573 85.5413 60.4136 85.5413 58.6089C85.5413 57.4539 85.7578 56.4433 86.1909 55.5771C86.6241 54.7108 87.2737 54.0612 88.0678 53.5559C88.8619 53.0505 89.8725 52.834 90.9553 52.834C92.1103 52.834 93.1931 53.0505 94.0593 53.4837L93.4818 54.6387C92.6878 54.2055 91.8215 53.989 90.9553 53.989Z" fill="#3C444C"/>
<path d="M102.722 64.2397V52.9785H104.021V63.0125H109.002V64.1675H102.722V64.2397Z" fill="#3C444C"/>
<path d="M112.178 64.2397V52.9785H113.478V64.1675H112.178V64.2397Z" fill="#3C444C"/>
<path d="M119.18 64.2397H117.881V52.9785H124.161V54.1335H119.18V58.2482H123.8V59.4031H119.18V64.2397Z" fill="#3C444C"/>
<path d="M133.473 64.2397H127.193V52.9785H133.473V54.1335H128.492V57.7429H133.112V58.8978H128.492V63.0125H133.473V64.2397Z" fill="#3C444C"/>
</svg>
