<?xml version="1.0" encoding="UTF-8"?>
<svg width="223px" height="53px" viewBox="0 0 223 53" version="1.1" xmlns="http://www.w3.org/2000/svg" xmlns:xlink="http://www.w3.org/1999/xlink">
    <!-- Generator: Sketch 43.2 (39069) - http://www.bohemiancoding.com/sketch -->
    <title>prometheus-logo</title>
    <desc>Created with Sketch.</desc>
    <defs></defs>
    <g id="Page-1" stroke="none" stroke-width="1" fill="none" fill-rule="evenodd">
        <g id="prometheus-logo" transform="translate(0.000000, -1.000000)" fill="#DA4E31">
            <path d="M26.32,0.9971213 C11.784,0.9971213 0,12.779121 0,27.317121 C0,41.852121 11.784,53.635121 26.32,53.635121 C40.855,53.635121 52.64,41.852121 52.64,27.315121 C52.64,12.781121 40.854,0.999121289 26.32,0.999121289 L26.32,0.9971213 Z M26.32,50.257121 C22.184,50.257121 18.83,47.494121 18.83,44.087121 L33.81,44.087121 C33.81,47.493121 30.458,50.257121 26.322,50.257121 L26.32,50.257121 Z M38.69,42.044121 L13.95,42.044121 L13.95,37.557121 L38.69,37.557121 L38.69,42.043121 L38.69,42.044121 Z M38.6,35.249121 L14.02,35.249121 C13.94,35.155121 13.855,35.062121 13.776,34.966121 C11.244,31.891121 10.646,30.286121 10.068,28.650121 C10.058,28.598121 13.138,29.280121 15.323,29.773121 C15.323,29.773121 16.447,30.033121 18.09,30.333121 C16.513,28.483121 15.576,26.133121 15.576,23.729121 C15.576,18.452121 19.622,13.842121 18.162,10.1151213 C19.582,10.2311213 21.102,13.115121 21.206,17.621121 C22.716,15.535121 23.348,11.723121 23.348,9.3861213 C23.348,6.9661213 24.943,4.1561213 26.538,4.0591213 C25.116,6.4021213 26.906,8.4111213 28.498,13.394121 C29.094,15.266121 29.018,18.416121 29.478,20.414121 C29.632,16.264121 30.345,10.2111213 32.978,8.1211213 C31.816,10.7531213 33.148,14.047121 34.061,15.631121 C35.534,18.184121 36.425,20.121121 36.425,23.781121 C36.425,26.235121 35.519,28.545121 33.991,30.351121 C35.728,30.025121 36.928,29.731121 36.928,29.731121 L42.572,28.631121 C42.575,28.631121 41.752,32.003121 38.602,35.251121 L38.6,35.249121 Z" id="path4181" fill-rule="nonzero"></path>
            <text id="tspan4191" font-family="Helvetica" font-size="30.8433743" font-weight="normal">
                <tspan x="57.562443" y="35.243095">Prometheus</tspan>
            </text>
        </g>
    </g>
</svg>